<?xml version="1.0" encoding="UTF-8" standalone="no"?>
<!DOCTYPE svg PUBLIC "-//W3C//DTD SVG 1.1//EN"
 "http://www.w3.org/Graphics/SVG/1.1/DTD/svg11.dtd">
<!-- Generated by graphviz version 2.43.0 (0)
 -->
<!-- Title: structs Pages: 1 -->
<svg width="450pt" height="295pt"
 viewBox="0.00 0.00 450.00 294.50" xmlns="http://www.w3.org/2000/svg" xmlns:xlink="http://www.w3.org/1999/xlink">
<g id="graph0" class="graph" transform="scale(1 1) rotate(0) translate(4 290.5)">
<title>structs</title>
<polygon fill="white" stroke="transparent" points="-4,4 -4,-290.5 446,-290.5 446,4 -4,4"/>
<!-- day -->
<g id="node1" class="node">
<title>day</title>
<polygon fill="none" stroke="black" points="177,-88 177,-109 280,-109 280,-88 177,-88"/>
<text text-anchor="start" x="214.5" y="-95.8" font-family="Times,serif" font-weight="bold" font-size="14.00">day</text>
<polygon fill="none" stroke="black" points="177,-67 177,-88 203,-88 203,-67 177,-67"/>
<text text-anchor="start" x="180" y="-73.8" font-family="Times,serif" font-size="14.00">🔑</text>
<polygon fill="none" stroke="black" points="203,-67 203,-88 280,-88 280,-67 203,-67"/>
<text text-anchor="start" x="225.5" y="-73.8" font-family="Times,serif" font-size="14.00">date</text>
<polygon fill="none" stroke="black" points="177,-46 177,-67 203,-67 203,-46 177,-46"/>
<text text-anchor="start" x="187.5" y="-52.8" font-family="Times,serif" font-size="14.00"> </text>
<polygon fill="none" stroke="black" points="203,-46 203,-67 280,-67 280,-46 203,-46"/>
<text text-anchor="start" x="206" y="-52.8" font-family="Times,serif" font-size="14.00">id_pricing</text>
<polygon fill="none" stroke="black" points="177,-25 177,-46 203,-46 203,-25 177,-25"/>
<text text-anchor="start" x="187.5" y="-31.8" font-family="Times,serif" font-size="14.00"> </text>
<polygon fill="none" stroke="black" points="203,-25 203,-46 280,-46 280,-25 203,-25"/>
<text text-anchor="start" x="209.5" y="-31.8" font-family="Times,serif" font-size="14.00">conso_hc</text>
<polygon fill="none" stroke="black" points="177,-4 177,-25 203,-25 203,-4 177,-4"/>
<text text-anchor="start" x="187.5" y="-10.8" font-family="Times,serif" font-size="14.00"> </text>
<polygon fill="none" stroke="black" points="203,-4 203,-25 280,-25 280,-4 203,-4"/>
<text text-anchor="start" x="208.5" y="-10.8" font-family="Times,serif" font-size="14.00">conso_hp</text>
</g>
<!-- pricing -->
<g id="node3" class="node">
<title>pricing</title>
<polygon fill="none" stroke="black" points="356,-109 356,-130 434,-130 434,-109 356,-109"/>
<text text-anchor="start" x="366.5" y="-116.8" font-family="Times,serif" font-weight="bold" font-size="14.00">pricing</text>
<polygon fill="none" stroke="black" points="356,-88 356,-109 382,-109 382,-88 356,-88"/>
<text text-anchor="start" x="359" y="-94.8" font-family="Times,serif" font-size="14.00">🔑</text>
<polygon fill="none" stroke="black" points="382,-88 382,-109 434,-109 434,-88 382,-88"/>
<text text-anchor="start" x="385" y="-94.8" font-family="Times,serif" font-size="14.00">period</text>
<polygon fill="none" stroke="black" points="356,-67 356,-88 382,-88 382,-67 356,-67"/>
<text text-anchor="start" x="359" y="-73.8" font-family="Times,serif" font-size="14.00">🔑</text>
<polygon fill="none" stroke="black" points="382,-67 382,-88 434,-88 434,-67 382,-67"/>
<text text-anchor="start" x="390" y="-73.8" font-family="Times,serif" font-size="14.00">color</text>
<polygon fill="none" stroke="black" points="356,-46 356,-67 382,-67 382,-46 356,-46"/>
<text text-anchor="start" x="366.5" y="-52.8" font-family="Times,serif" font-size="14.00"> </text>
<polygon fill="none" stroke="black" points="382,-46 382,-67 434,-67 434,-46 382,-46"/>
<text text-anchor="start" x="401" y="-52.8" font-family="Times,serif" font-size="14.00">id</text>
<polygon fill="none" stroke="black" points="356,-25 356,-46 382,-46 382,-25 356,-25"/>
<text text-anchor="start" x="366.5" y="-31.8" font-family="Times,serif" font-size="14.00"> </text>
<polygon fill="none" stroke="black" points="382,-25 382,-46 434,-46 434,-25 382,-25"/>
<text text-anchor="start" x="399.5" y="-31.8" font-family="Times,serif" font-size="14.00">hc</text>
<polygon fill="none" stroke="black" points="356,-4 356,-25 382,-25 382,-4 356,-4"/>
<text text-anchor="start" x="366.5" y="-10.8" font-family="Times,serif" font-size="14.00"> </text>
<polygon fill="none" stroke="black" points="382,-4 382,-25 434,-25 434,-4 382,-4"/>
<text text-anchor="start" x="398.5" y="-10.8" font-family="Times,serif" font-size="14.00">hp</text>
</g>
<!-- day&#45;&gt;pricing -->
<g id="edge3" class="edge">
<title>day:e&#45;&gt;pricing:w</title>
<path fill="none" stroke="black" d="M281,-56C310.16,-56 319.93,-56 344.7,-56"/>
<polygon fill="black" stroke="black" points="345,-59.5 355,-56 345,-52.5 345,-59.5"/>
</g>
<!-- derogation -->
<g id="node2" class="node">
<title>derogation</title>
<polygon fill="none" stroke="black" points="8,-186 8,-207 100,-207 100,-186 8,-186"/>
<text text-anchor="start" x="11" y="-193.8" font-family="Times,serif" font-weight="bold" font-size="14.00">derogation</text>
<polygon fill="none" stroke="black" points="8,-165 8,-186 38,-186 38,-165 8,-165"/>
<text text-anchor="start" x="13" y="-171.8" font-family="Times,serif" font-size="14.00">🔑</text>
<polygon fill="none" stroke="black" points="38,-165 38,-186 100,-186 100,-165 38,-165"/>
<text text-anchor="start" x="43" y="-171.8" font-family="Times,serif" font-size="14.00">id_user</text>
<polygon fill="none" stroke="black" points="8,-144 8,-165 38,-165 38,-144 8,-144"/>
<text text-anchor="start" x="13" y="-150.8" font-family="Times,serif" font-size="14.00">🔑</text>
<polygon fill="none" stroke="black" points="38,-144 38,-165 100,-165 100,-144 38,-144"/>
<text text-anchor="start" x="53" y="-150.8" font-family="Times,serif" font-size="14.00">date</text>
</g>
<!-- derogation&#45;&gt;day -->
<g id="edge1" class="edge">
<title>derogation:e&#45;&gt;day:w</title>
<path fill="none" stroke="black" d="M101,-154C144.75,-154 131.24,-89.41 166.05,-79.32"/>
<polygon fill="black" stroke="black" points="166.55,-82.78 176,-78 165.63,-75.84 166.55,-82.78"/>
</g>
<!-- user -->
<g id="node4" class="node">
<title>user</title>
<polygon fill="none" stroke="black" points="152,-261 152,-282 304,-282 304,-261 152,-261"/>
<text text-anchor="start" x="210" y="-268.8" font-family="Times,serif" font-weight="bold" font-size="14.00">user</text>
<polygon fill="none" stroke="black" points="152,-240 152,-261 178,-261 178,-240 152,-240"/>
<text text-anchor="start" x="155" y="-246.8" font-family="Times,serif" font-size="14.00">🔑</text>
<polygon fill="none" stroke="black" points="178,-240 178,-261 304,-261 304,-240 178,-240"/>
<text text-anchor="start" x="234" y="-246.8" font-family="Times,serif" font-size="14.00">id</text>
<polygon fill="none" stroke="black" points="152,-219 152,-240 178,-240 178,-219 152,-219"/>
<text text-anchor="start" x="162.5" y="-225.8" font-family="Times,serif" font-size="14.00"> </text>
<polygon fill="none" stroke="black" points="178,-219 178,-240 304,-240 304,-219 178,-219"/>
<text text-anchor="start" x="205.5" y="-225.8" font-family="Times,serif" font-size="14.00">username</text>
<polygon fill="none" stroke="black" points="152,-198 152,-219 178,-219 178,-198 152,-198"/>
<text text-anchor="start" x="162.5" y="-204.8" font-family="Times,serif" font-size="14.00"> </text>
<polygon fill="none" stroke="black" points="178,-198 178,-219 304,-219 304,-198 178,-198"/>
<text text-anchor="start" x="218" y="-204.8" font-family="Times,serif" font-size="14.00">avatar</text>
<polygon fill="none" stroke="black" points="152,-177 152,-198 178,-198 178,-177 152,-177"/>
<text text-anchor="start" x="162.5" y="-183.8" font-family="Times,serif" font-size="14.00"> </text>
<polygon fill="none" stroke="black" points="178,-177 178,-198 304,-198 304,-177 178,-177"/>
<text text-anchor="start" x="181" y="-183.8" font-family="Times,serif" font-size="14.00">permission_level</text>
<polygon fill="none" stroke="black" points="152,-156 152,-177 178,-177 178,-156 152,-156"/>
<text text-anchor="start" x="162.5" y="-162.8" font-family="Times,serif" font-size="14.00"> </text>
<polygon fill="none" stroke="black" points="178,-156 178,-177 304,-177 304,-156 178,-156"/>
<text text-anchor="start" x="198" y="-162.8" font-family="Times,serif" font-size="14.00">arrival_date</text>
<polygon fill="none" stroke="black" points="152,-135 152,-156 178,-156 178,-135 152,-135"/>
<text text-anchor="start" x="162.5" y="-141.8" font-family="Times,serif" font-size="14.00"> </text>
<polygon fill="none" stroke="black" points="178,-135 178,-156 304,-156 304,-135 178,-135"/>
<text text-anchor="start" x="203" y="-141.8" font-family="Times,serif" font-size="14.00">leave_date</text>
</g>
<!-- derogation&#45;&gt;user -->
<g id="edge2" class="edge">
<title>derogation:e&#45;&gt;user:w</title>
<path fill="none" stroke="black" d="M101,-175C137.48,-175 115.92,-236.88 141.06,-248.97"/>
<polygon fill="black" stroke="black" points="140.5,-252.42 151,-251 141.9,-245.57 140.5,-252.42"/>
</g>
</g>
</svg>
