<?xml version="1.0" encoding="UTF-8" standalone="no"?>
<!DOCTYPE svg PUBLIC "-//W3C//DTD SVG 1.1//EN"
 "http://www.w3.org/Graphics/SVG/1.1/DTD/svg11.dtd">
<!-- Generated by graphviz version 2.43.0 (0)
 -->
<!-- Title: structs Pages: 1 -->
<svg width="440pt" height="274pt"
 viewBox="0.00 0.00 440.00 274.00" xmlns="http://www.w3.org/2000/svg" xmlns:xlink="http://www.w3.org/1999/xlink">
<g id="graph0" class="graph" transform="scale(1 1) rotate(0) translate(4 270)">
<title>structs</title>
<polygon fill="white" stroke="transparent" points="-4,4 -4,-270 436,-270 436,4 -4,4"/>
<!-- day -->
<g id="node1" class="node">
<title>day</title>
<polygon fill="none" stroke="black" points="177,-109.5 177,-130.5 280,-130.5 280,-109.5 177,-109.5"/>
<text text-anchor="start" x="214.5" y="-117.3" font-family="Times,serif" font-weight="bold" font-size="14.00">day</text>
<polygon fill="none" stroke="black" points="177,-88.5 177,-109.5 203,-109.5 203,-88.5 177,-88.5"/>
<text text-anchor="start" x="180" y="-95.3" font-family="Times,serif" font-size="14.00">🔑</text>
<polygon fill="none" stroke="black" points="203,-88.5 203,-109.5 280,-109.5 280,-88.5 203,-88.5"/>
<text text-anchor="start" x="225.5" y="-95.3" font-family="Times,serif" font-size="14.00">date</text>
<polygon fill="none" stroke="black" points="177,-67.5 177,-88.5 203,-88.5 203,-67.5 177,-67.5"/>
<text text-anchor="start" x="187.5" y="-74.3" font-family="Times,serif" font-size="14.00"> </text>
<polygon fill="none" stroke="black" points="203,-67.5 203,-88.5 280,-88.5 280,-67.5 203,-67.5"/>
<text text-anchor="start" x="206" y="-74.3" font-family="Times,serif" font-size="14.00">id_pricing</text>
<polygon fill="none" stroke="black" points="177,-46.5 177,-67.5 203,-67.5 203,-46.5 177,-46.5"/>
<text text-anchor="start" x="187.5" y="-53.3" font-family="Times,serif" font-size="14.00"> </text>
<polygon fill="none" stroke="black" points="203,-46.5 203,-67.5 280,-67.5 280,-46.5 203,-46.5"/>
<text text-anchor="start" x="209.5" y="-53.3" font-family="Times,serif" font-size="14.00">conso_hc</text>
<polygon fill="none" stroke="black" points="177,-25.5 177,-46.5 203,-46.5 203,-25.5 177,-25.5"/>
<text text-anchor="start" x="187.5" y="-32.3" font-family="Times,serif" font-size="14.00"> </text>
<polygon fill="none" stroke="black" points="203,-25.5 203,-46.5 280,-46.5 280,-25.5 203,-25.5"/>
<text text-anchor="start" x="208.5" y="-32.3" font-family="Times,serif" font-size="14.00">conso_hp</text>
</g>
<!-- pricing -->
<g id="node3" class="node">
<title>pricing</title>
<polygon fill="none" stroke="black" points="356,-87.5 356,-108.5 424,-108.5 424,-87.5 356,-87.5"/>
<text text-anchor="start" x="361.5" y="-95.3" font-family="Times,serif" font-weight="bold" font-size="14.00">pricing</text>
<polygon fill="none" stroke="black" points="356,-66.5 356,-87.5 382,-87.5 382,-66.5 356,-66.5"/>
<text text-anchor="start" x="359" y="-73.3" font-family="Times,serif" font-size="14.00">🔑</text>
<polygon fill="none" stroke="black" points="382,-66.5 382,-87.5 424,-87.5 424,-66.5 382,-66.5"/>
<text text-anchor="start" x="396" y="-73.3" font-family="Times,serif" font-size="14.00">id</text>
<polygon fill="none" stroke="black" points="356,-45.5 356,-66.5 382,-66.5 382,-45.5 356,-45.5"/>
<text text-anchor="start" x="366.5" y="-52.3" font-family="Times,serif" font-size="14.00"> </text>
<polygon fill="none" stroke="black" points="382,-45.5 382,-66.5 424,-66.5 424,-45.5 382,-45.5"/>
<text text-anchor="start" x="385" y="-52.3" font-family="Times,serif" font-size="14.00">color</text>
<polygon fill="none" stroke="black" points="356,-24.5 356,-45.5 382,-45.5 382,-24.5 356,-24.5"/>
<text text-anchor="start" x="366.5" y="-31.3" font-family="Times,serif" font-size="14.00"> </text>
<polygon fill="none" stroke="black" points="382,-24.5 382,-45.5 424,-45.5 424,-24.5 382,-24.5"/>
<text text-anchor="start" x="394.5" y="-31.3" font-family="Times,serif" font-size="14.00">hc</text>
<polygon fill="none" stroke="black" points="356,-3.5 356,-24.5 382,-24.5 382,-3.5 356,-3.5"/>
<text text-anchor="start" x="366.5" y="-10.3" font-family="Times,serif" font-size="14.00"> </text>
<polygon fill="none" stroke="black" points="382,-3.5 382,-24.5 424,-24.5 424,-3.5 382,-3.5"/>
<text text-anchor="start" x="393.5" y="-10.3" font-family="Times,serif" font-size="14.00">hp</text>
</g>
<!-- day&#45;&gt;pricing -->
<g id="edge3" class="edge">
<title>day:e&#45;&gt;pricing:w</title>
<path fill="none" stroke="black" d="M281,-77.5C310.16,-77.5 319.93,-77.5 344.7,-77.5"/>
<polygon fill="black" stroke="black" points="345,-81 355,-77.5 345,-74 345,-81"/>
</g>
<!-- derogation -->
<g id="node2" class="node">
<title>derogation</title>
<polygon fill="none" stroke="black" points="8,-186.5 8,-207.5 100,-207.5 100,-186.5 8,-186.5"/>
<text text-anchor="start" x="11" y="-194.3" font-family="Times,serif" font-weight="bold" font-size="14.00">derogation</text>
<polygon fill="none" stroke="black" points="8,-165.5 8,-186.5 38,-186.5 38,-165.5 8,-165.5"/>
<text text-anchor="start" x="13" y="-172.3" font-family="Times,serif" font-size="14.00">🔑</text>
<polygon fill="none" stroke="black" points="38,-165.5 38,-186.5 100,-186.5 100,-165.5 38,-165.5"/>
<text text-anchor="start" x="43" y="-172.3" font-family="Times,serif" font-size="14.00">id_user</text>
<polygon fill="none" stroke="black" points="8,-144.5 8,-165.5 38,-165.5 38,-144.5 8,-144.5"/>
<text text-anchor="start" x="13" y="-151.3" font-family="Times,serif" font-size="14.00">🔑</text>
<polygon fill="none" stroke="black" points="38,-144.5 38,-165.5 100,-165.5 100,-144.5 38,-144.5"/>
<text text-anchor="start" x="53" y="-151.3" font-family="Times,serif" font-size="14.00">date</text>
</g>
<!-- derogation&#45;&gt;day -->
<g id="edge1" class="edge">
<title>derogation:e&#45;&gt;day:w</title>
<path fill="none" stroke="black" d="M101,-154.5C138.62,-154.5 135.65,-108.94 165.97,-100.75"/>
<polygon fill="black" stroke="black" points="166.51,-104.21 176,-99.5 165.64,-97.27 166.51,-104.21"/>
</g>
<!-- user -->
<g id="node4" class="node">
<title>user</title>
<polygon fill="none" stroke="black" points="152,-240.5 152,-261.5 304,-261.5 304,-240.5 152,-240.5"/>
<text text-anchor="start" x="210" y="-248.3" font-family="Times,serif" font-weight="bold" font-size="14.00">user</text>
<polygon fill="none" stroke="black" points="152,-219.5 152,-240.5 178,-240.5 178,-219.5 152,-219.5"/>
<text text-anchor="start" x="155" y="-226.3" font-family="Times,serif" font-size="14.00">🔑</text>
<polygon fill="none" stroke="black" points="178,-219.5 178,-240.5 304,-240.5 304,-219.5 178,-219.5"/>
<text text-anchor="start" x="234" y="-226.3" font-family="Times,serif" font-size="14.00">id</text>
<polygon fill="none" stroke="black" points="152,-198.5 152,-219.5 178,-219.5 178,-198.5 152,-198.5"/>
<text text-anchor="start" x="162.5" y="-205.3" font-family="Times,serif" font-size="14.00"> </text>
<polygon fill="none" stroke="black" points="178,-198.5 178,-219.5 304,-219.5 304,-198.5 178,-198.5"/>
<text text-anchor="start" x="205.5" y="-205.3" font-family="Times,serif" font-size="14.00">username</text>
<polygon fill="none" stroke="black" points="152,-177.5 152,-198.5 178,-198.5 178,-177.5 152,-177.5"/>
<text text-anchor="start" x="162.5" y="-184.3" font-family="Times,serif" font-size="14.00"> </text>
<polygon fill="none" stroke="black" points="178,-177.5 178,-198.5 304,-198.5 304,-177.5 178,-177.5"/>
<text text-anchor="start" x="218" y="-184.3" font-family="Times,serif" font-size="14.00">avatar</text>
<polygon fill="none" stroke="black" points="152,-156.5 152,-177.5 178,-177.5 178,-156.5 152,-156.5"/>
<text text-anchor="start" x="162.5" y="-163.3" font-family="Times,serif" font-size="14.00"> </text>
<polygon fill="none" stroke="black" points="178,-156.5 178,-177.5 304,-177.5 304,-156.5 178,-156.5"/>
<text text-anchor="start" x="181" y="-163.3" font-family="Times,serif" font-size="14.00">permission_level</text>
</g>
<!-- derogation&#45;&gt;user -->
<g id="edge2" class="edge">
<title>derogation:e&#45;&gt;user:w</title>
<path fill="none" stroke="black" d="M101,-175.5C130.04,-175.5 121.14,-217.99 140.98,-228.28"/>
<polygon fill="black" stroke="black" points="140.48,-231.75 151,-230.5 142,-224.92 140.48,-231.75"/>
</g>
</g>
</svg>
